<?xml version="1.0" encoding="UTF-8"?>
<svg xmlns="http://www.w3.org/2000/svg" xmlns:xlink="http://www.w3.org/1999/xlink" width="3000" height="3000" viewBox="0 0 3000 3000">
<defs>
<radialGradient id="radial-pattern-0" gradientUnits="userSpaceOnUse" cx="0" cy="0" fx="0" fy="0" r="1500" gradientTransform="matrix(1, 0, 0, 1, 1500, 1500)">
<stop offset="0" stop-color="rgb(9.335327%, 7.797241%, 7.554626%)" stop-opacity="1"/>
<stop offset="1" stop-color="rgb(9.335327%, 7.797241%, 7.554626%)" stop-opacity="1"/>
</radialGradient>
</defs>
<rect x="-300" y="-300" width="3600" height="3600" fill="url(#radial-pattern-0)"/>
<path fill-rule="nonzero" fill="rgb(98.023987%, 73.486328%, 88.041687%)" fill-opacity="1" d="M 559.125 0 L 559.125 184.121094 L 190.875 184.121094 L 190.875 0 L 184.125 0 L 184.125 184.121094 L 183.992188 184.121094 L 190.875 191.011719 L 190.875 190.871094 L 559.125 190.871094 L 559.125 190.910156 L 565.90625 184.121094 L 565.875 184.121094 L 565.875 0 L 559.125 0 "/>
<path fill-rule="nonzero" fill="rgb(98.023987%, 73.486328%, 88.041687%)" fill-opacity="1" d="M 190.875 559.121094 L 190.875 559.078125 L 184.078125 565.871094 L 184.125 565.871094 L 184.125 750 L 190.875 750 L 190.875 565.871094 L 559.125 565.871094 L 559.125 750 L 565.875 750 L 565.875 565.929688 L 559.066406 559.121094 L 190.875 559.121094 "/>
<path fill-rule="nonzero" fill="rgb(98.023987%, 73.486328%, 88.041687%)" fill-opacity="1" d="M 1309.121094 0 L 1309.121094 184.121094 L 940.875 184.121094 L 940.875 0 L 934.125 0 L 934.125 184.121094 L 933.992188 184.121094 L 940.875 191.011719 L 940.875 190.871094 L 1309.121094 190.871094 L 1309.121094 190.910156 L 1315.910156 184.121094 L 1315.871094 184.121094 L 1315.871094 0 L 1309.121094 0 "/>
<path fill-rule="nonzero" fill="rgb(98.023987%, 73.486328%, 88.041687%)" fill-opacity="1" d="M 940.875 559.121094 L 940.875 559.078125 L 934.078125 565.871094 L 934.125 565.871094 L 934.125 750 L 940.875 750 L 940.875 565.871094 L 1309.121094 565.871094 L 1309.121094 750 L 1315.871094 750 L 1315.871094 565.929688 L 1309.058594 559.121094 L 940.875 559.121094 "/>
<path fill-rule="nonzero" fill="rgb(98.023987%, 73.486328%, 88.041687%)" fill-opacity="1" d="M 2059.121094 0 L 2059.121094 184.121094 L 1690.878906 184.121094 L 1690.878906 0 L 1684.128906 0 L 1684.128906 184.121094 L 1683.988281 184.121094 L 1690.878906 191.011719 L 1690.878906 190.871094 L 2059.121094 190.871094 L 2059.121094 190.910156 L 2065.898438 184.121094 L 2065.871094 184.121094 L 2065.871094 0 L 2059.121094 0 "/>
<path fill-rule="nonzero" fill="rgb(98.023987%, 73.486328%, 88.041687%)" fill-opacity="1" d="M 1690.878906 559.121094 L 1690.878906 559.078125 L 1684.078125 565.871094 L 1684.128906 565.871094 L 1684.128906 750 L 1690.878906 750 L 1690.878906 565.871094 L 2059.121094 565.871094 L 2059.121094 750 L 2065.871094 750 L 2065.871094 565.929688 L 2059.058594 559.121094 L 1690.878906 559.121094 "/>
<path fill-rule="nonzero" fill="rgb(98.023987%, 73.486328%, 88.041687%)" fill-opacity="1" d="M 2809.121094 0 L 2809.121094 184.121094 L 2440.871094 184.121094 L 2440.871094 0 L 2434.121094 0 L 2434.121094 184.121094 L 2433.988281 184.121094 L 2440.871094 191.011719 L 2440.871094 190.871094 L 2809.121094 190.871094 L 2809.121094 190.910156 L 2815.898438 184.121094 L 2815.871094 184.121094 L 2815.871094 0 L 2809.121094 0 "/>
<path fill-rule="nonzero" fill="rgb(98.023987%, 73.486328%, 88.041687%)" fill-opacity="1" d="M 2440.871094 559.121094 L 2440.871094 559.078125 L 2434.078125 565.871094 L 2434.121094 565.871094 L 2434.121094 750 L 2440.871094 750 L 2440.871094 565.871094 L 2809.121094 565.871094 L 2809.121094 750 L 2815.871094 750 L 2815.871094 565.929688 L 2809.058594 559.121094 L 2440.871094 559.121094 "/>
<path fill-rule="nonzero" fill="rgb(98.023987%, 73.486328%, 88.041687%)" fill-opacity="1" d="M 559.125 750 L 559.125 934.121094 L 190.875 934.121094 L 190.875 750 L 184.125 750 L 184.125 934.121094 L 183.992188 934.121094 L 190.875 941.011719 L 190.875 940.871094 L 559.125 940.871094 L 559.125 940.910156 L 565.90625 934.121094 L 565.875 934.121094 L 565.875 750 L 559.125 750 "/>
<path fill-rule="nonzero" fill="rgb(98.023987%, 73.486328%, 88.041687%)" fill-opacity="1" d="M 190.875 1309.121094 L 190.875 1309.078125 L 184.078125 1315.871094 L 184.125 1315.871094 L 184.125 1500 L 190.875 1500 L 190.875 1315.871094 L 559.125 1315.871094 L 559.125 1500 L 565.875 1500 L 565.875 1315.941406 L 559.066406 1309.121094 L 190.875 1309.121094 "/>
<path fill-rule="nonzero" fill="rgb(98.023987%, 73.486328%, 88.041687%)" fill-opacity="1" d="M 1309.121094 750 L 1309.121094 934.121094 L 940.875 934.121094 L 940.875 750 L 934.125 750 L 934.125 934.121094 L 933.992188 934.121094 L 940.875 941.011719 L 940.875 940.871094 L 1309.121094 940.871094 L 1309.121094 940.910156 L 1315.910156 934.121094 L 1315.871094 934.121094 L 1315.871094 750 L 1309.121094 750 "/>
<path fill-rule="nonzero" fill="rgb(98.023987%, 73.486328%, 88.041687%)" fill-opacity="1" d="M 940.875 1309.121094 L 940.875 1309.078125 L 934.078125 1315.871094 L 934.125 1315.871094 L 934.125 1500 L 940.875 1500 L 940.875 1315.871094 L 1309.121094 1315.871094 L 1309.121094 1500 L 1315.871094 1500 L 1315.871094 1315.941406 L 1309.058594 1309.121094 L 940.875 1309.121094 "/>
<path fill-rule="nonzero" fill="rgb(98.023987%, 73.486328%, 88.041687%)" fill-opacity="1" d="M 2059.121094 750 L 2059.121094 934.121094 L 1690.878906 934.121094 L 1690.878906 750 L 1684.128906 750 L 1684.128906 934.121094 L 1683.988281 934.121094 L 1690.878906 941.011719 L 1690.878906 940.871094 L 2059.121094 940.871094 L 2059.121094 940.910156 L 2065.898438 934.121094 L 2065.871094 934.121094 L 2065.871094 750 L 2059.121094 750 "/>
<path fill-rule="nonzero" fill="rgb(98.023987%, 73.486328%, 88.041687%)" fill-opacity="1" d="M 1690.878906 1309.121094 L 1690.878906 1309.078125 L 1684.078125 1315.871094 L 1684.128906 1315.871094 L 1684.128906 1500 L 1690.878906 1500 L 1690.878906 1315.871094 L 2059.121094 1315.871094 L 2059.121094 1500 L 2065.871094 1500 L 2065.871094 1315.941406 L 2059.058594 1309.121094 L 1690.878906 1309.121094 "/>
<path fill-rule="nonzero" fill="rgb(98.023987%, 73.486328%, 88.041687%)" fill-opacity="1" d="M 2809.121094 750 L 2809.121094 934.121094 L 2440.871094 934.121094 L 2440.871094 750 L 2434.121094 750 L 2434.121094 934.121094 L 2433.988281 934.121094 L 2440.871094 941.011719 L 2440.871094 940.871094 L 2809.121094 940.871094 L 2809.121094 940.910156 L 2815.898438 934.121094 L 2815.871094 934.121094 L 2815.871094 750 L 2809.121094 750 "/>
<path fill-rule="nonzero" fill="rgb(98.023987%, 73.486328%, 88.041687%)" fill-opacity="1" d="M 2440.871094 1309.121094 L 2440.871094 1309.078125 L 2434.078125 1315.871094 L 2434.121094 1315.871094 L 2434.121094 1500 L 2440.871094 1500 L 2440.871094 1315.871094 L 2809.121094 1315.871094 L 2809.121094 1500 L 2815.871094 1500 L 2815.871094 1315.941406 L 2809.058594 1309.121094 L 2440.871094 1309.121094 "/>
<path fill-rule="nonzero" fill="rgb(98.023987%, 73.486328%, 88.041687%)" fill-opacity="1" d="M 559.125 1500 L 559.125 1684.128906 L 190.875 1684.128906 L 190.875 1500 L 184.125 1500 L 184.125 1684.128906 L 183.992188 1684.128906 L 190.875 1691.011719 L 190.875 1690.878906 L 559.125 1690.878906 L 559.125 1690.910156 L 565.90625 1684.128906 L 565.875 1684.128906 L 565.875 1500 L 559.125 1500 "/>
<path fill-rule="nonzero" fill="rgb(98.023987%, 73.486328%, 88.041687%)" fill-opacity="1" d="M 190.875 2059.128906 L 190.875 2059.078125 L 184.078125 2065.878906 L 184.125 2065.878906 L 184.125 2250 L 190.875 2250 L 190.875 2065.878906 L 559.125 2065.878906 L 559.125 2250 L 565.875 2250 L 565.875 2065.941406 L 559.066406 2059.128906 L 190.875 2059.128906 "/>
<path fill-rule="nonzero" fill="rgb(98.023987%, 73.486328%, 88.041687%)" fill-opacity="1" d="M 1309.121094 1500 L 1309.121094 1684.128906 L 940.875 1684.128906 L 940.875 1500 L 934.125 1500 L 934.125 1684.128906 L 933.992188 1684.128906 L 940.875 1691.011719 L 940.875 1690.878906 L 1309.121094 1690.878906 L 1309.121094 1690.910156 L 1315.910156 1684.128906 L 1315.871094 1684.128906 L 1315.871094 1500 L 1309.121094 1500 "/>
<path fill-rule="nonzero" fill="rgb(98.023987%, 73.486328%, 88.041687%)" fill-opacity="1" d="M 940.875 2059.128906 L 940.875 2059.078125 L 934.078125 2065.878906 L 934.125 2065.878906 L 934.125 2250 L 940.875 2250 L 940.875 2065.878906 L 1309.121094 2065.878906 L 1309.121094 2250 L 1315.871094 2250 L 1315.871094 2065.941406 L 1309.058594 2059.128906 L 940.875 2059.128906 "/>
<path fill-rule="nonzero" fill="rgb(98.023987%, 73.486328%, 88.041687%)" fill-opacity="1" d="M 2059.121094 1500 L 2059.121094 1684.128906 L 1690.878906 1684.128906 L 1690.878906 1500 L 1684.128906 1500 L 1684.128906 1684.128906 L 1683.988281 1684.128906 L 1690.878906 1691.011719 L 1690.878906 1690.878906 L 2059.121094 1690.878906 L 2059.121094 1690.910156 L 2065.898438 1684.128906 L 2065.871094 1684.128906 L 2065.871094 1500 L 2059.121094 1500 "/>
<path fill-rule="nonzero" fill="rgb(98.023987%, 73.486328%, 88.041687%)" fill-opacity="1" d="M 1690.878906 2059.128906 L 1690.878906 2059.078125 L 1684.078125 2065.878906 L 1684.128906 2065.878906 L 1684.128906 2250 L 1690.878906 2250 L 1690.878906 2065.878906 L 2059.121094 2065.878906 L 2059.121094 2250 L 2065.871094 2250 L 2065.871094 2065.941406 L 2059.058594 2059.128906 L 1690.878906 2059.128906 "/>
<path fill-rule="nonzero" fill="rgb(98.023987%, 73.486328%, 88.041687%)" fill-opacity="1" d="M 2809.121094 1500 L 2809.121094 1684.128906 L 2440.871094 1684.128906 L 2440.871094 1500 L 2434.121094 1500 L 2434.121094 1684.128906 L 2433.988281 1684.128906 L 2440.871094 1691.011719 L 2440.871094 1690.878906 L 2809.121094 1690.878906 L 2809.121094 1690.910156 L 2815.898438 1684.128906 L 2815.871094 1684.128906 L 2815.871094 1500 L 2809.121094 1500 "/>
<path fill-rule="nonzero" fill="rgb(98.023987%, 73.486328%, 88.041687%)" fill-opacity="1" d="M 2440.871094 2059.128906 L 2440.871094 2059.078125 L 2434.078125 2065.878906 L 2434.121094 2065.878906 L 2434.121094 2250 L 2440.871094 2250 L 2440.871094 2065.878906 L 2809.121094 2065.878906 L 2809.121094 2250 L 2815.871094 2250 L 2815.871094 2065.941406 L 2809.058594 2059.128906 L 2440.871094 2059.128906 "/>
<path fill-rule="nonzero" fill="rgb(98.023987%, 73.486328%, 88.041687%)" fill-opacity="1" d="M 559.125 2250 L 559.125 2434.128906 L 190.875 2434.128906 L 190.875 2250 L 184.125 2250 L 184.125 2434.128906 L 183.992188 2434.128906 L 190.875 2441.011719 L 190.875 2440.878906 L 559.125 2440.878906 L 559.125 2440.910156 L 565.90625 2434.128906 L 565.875 2434.128906 L 565.875 2250 L 559.125 2250 "/>
<path fill-rule="nonzero" fill="rgb(98.023987%, 73.486328%, 88.041687%)" fill-opacity="1" d="M 190.875 2809.128906 L 190.875 2809.078125 L 184.078125 2815.878906 L 184.125 2815.878906 L 184.125 3000 L 190.875 3000 L 190.875 2815.878906 L 559.125 2815.878906 L 559.125 3000 L 565.875 3000 L 565.875 2815.941406 L 559.066406 2809.128906 L 190.875 2809.128906 "/>
<path fill-rule="nonzero" fill="rgb(98.023987%, 73.486328%, 88.041687%)" fill-opacity="1" d="M 1309.121094 2250 L 1309.121094 2434.128906 L 940.875 2434.128906 L 940.875 2250 L 934.125 2250 L 934.125 2434.128906 L 933.992188 2434.128906 L 940.875 2441.011719 L 940.875 2440.878906 L 1309.121094 2440.878906 L 1309.121094 2440.910156 L 1315.910156 2434.128906 L 1315.871094 2434.128906 L 1315.871094 2250 L 1309.121094 2250 "/>
<path fill-rule="nonzero" fill="rgb(98.023987%, 73.486328%, 88.041687%)" fill-opacity="1" d="M 940.875 2809.128906 L 940.875 2809.078125 L 934.078125 2815.878906 L 934.125 2815.878906 L 934.125 3000 L 940.875 3000 L 940.875 2815.878906 L 1309.121094 2815.878906 L 1309.121094 3000 L 1315.871094 3000 L 1315.871094 2815.941406 L 1309.058594 2809.128906 L 940.875 2809.128906 "/>
<path fill-rule="nonzero" fill="rgb(98.023987%, 73.486328%, 88.041687%)" fill-opacity="1" d="M 2059.121094 2250 L 2059.121094 2434.128906 L 1690.878906 2434.128906 L 1690.878906 2250 L 1684.128906 2250 L 1684.128906 2434.128906 L 1683.988281 2434.128906 L 1690.878906 2441.011719 L 1690.878906 2440.878906 L 2059.121094 2440.878906 L 2059.121094 2440.910156 L 2065.898438 2434.128906 L 2065.871094 2434.128906 L 2065.871094 2250 L 2059.121094 2250 "/>
<path fill-rule="nonzero" fill="rgb(98.023987%, 73.486328%, 88.041687%)" fill-opacity="1" d="M 1690.878906 2809.128906 L 1690.878906 2809.078125 L 1684.078125 2815.878906 L 1684.128906 2815.878906 L 1684.128906 3000 L 1690.878906 3000 L 1690.878906 2815.878906 L 2059.121094 2815.878906 L 2059.121094 3000 L 2065.871094 3000 L 2065.871094 2815.941406 L 2059.058594 2809.128906 L 1690.878906 2809.128906 "/>
<path fill-rule="nonzero" fill="rgb(98.023987%, 73.486328%, 88.041687%)" fill-opacity="1" d="M 2809.121094 2250 L 2809.121094 2434.128906 L 2440.871094 2434.128906 L 2440.871094 2250 L 2434.121094 2250 L 2434.121094 2434.128906 L 2433.988281 2434.128906 L 2440.871094 2441.011719 L 2440.871094 2440.878906 L 2809.121094 2440.878906 L 2809.121094 2440.910156 L 2815.898438 2434.128906 L 2815.871094 2434.128906 L 2815.871094 2250 L 2809.121094 2250 "/>
<path fill-rule="nonzero" fill="rgb(98.023987%, 73.486328%, 88.041687%)" fill-opacity="1" d="M 2440.871094 2809.128906 L 2440.871094 2809.078125 L 2434.078125 2815.878906 L 2434.121094 2815.878906 L 2434.121094 3000 L 2440.871094 3000 L 2440.871094 2815.878906 L 2809.121094 2815.878906 L 2809.121094 3000 L 2815.871094 3000 L 2815.871094 2815.941406 L 2809.058594 2809.128906 L 2440.871094 2809.128906 "/>
<path fill-rule="nonzero" fill="rgb(43.165588%, 81.326294%, 88.18512%)" fill-opacity="1" d="M 0 184.121094 L 0 190.871094 L 184.125 190.871094 L 184.125 559.121094 L 0 559.121094 L 0 565.871094 L 184.078125 565.871094 L 190.875 559.078125 L 190.875 191.011719 L 183.992188 184.121094 L 0 184.121094 "/>
<path fill-rule="nonzero" fill="rgb(43.165588%, 81.326294%, 88.18512%)" fill-opacity="1" d="M 750 190.871094 L 750 184.121094 L 565.90625 184.121094 L 559.125 190.910156 L 559.125 559.121094 L 559.066406 559.121094 L 565.875 565.929688 L 565.875 565.871094 L 750 565.871094 L 750 559.121094 L 565.875 559.121094 L 565.875 190.871094 L 750 190.871094 "/>
<path fill-rule="nonzero" fill="rgb(43.165588%, 81.326294%, 88.18512%)" fill-opacity="1" d="M 750 184.121094 L 750 190.871094 L 934.125 190.871094 L 934.125 559.121094 L 750 559.121094 L 750 565.871094 L 934.078125 565.871094 L 940.875 559.078125 L 940.875 191.011719 L 933.992188 184.121094 L 750 184.121094 "/>
<path fill-rule="nonzero" fill="rgb(43.165588%, 81.326294%, 88.18512%)" fill-opacity="1" d="M 1500 190.871094 L 1500 184.121094 L 1315.910156 184.121094 L 1309.121094 190.910156 L 1309.121094 559.121094 L 1309.058594 559.121094 L 1315.871094 565.929688 L 1315.871094 565.871094 L 1500 565.871094 L 1500 559.121094 L 1315.871094 559.121094 L 1315.871094 190.871094 L 1500 190.871094 "/>
<path fill-rule="nonzero" fill="rgb(43.165588%, 81.326294%, 88.18512%)" fill-opacity="1" d="M 1500 184.121094 L 1500 190.871094 L 1684.128906 190.871094 L 1684.128906 559.121094 L 1500 559.121094 L 1500 565.871094 L 1684.078125 565.871094 L 1690.878906 559.078125 L 1690.878906 191.011719 L 1683.988281 184.121094 L 1500 184.121094 "/>
<path fill-rule="nonzero" fill="rgb(43.165588%, 81.326294%, 88.18512%)" fill-opacity="1" d="M 2250 190.871094 L 2250 184.121094 L 2065.898438 184.121094 L 2059.121094 190.910156 L 2059.121094 559.121094 L 2059.058594 559.121094 L 2065.871094 565.929688 L 2065.871094 565.871094 L 2250 565.871094 L 2250 559.121094 L 2065.871094 559.121094 L 2065.871094 190.871094 L 2250 190.871094 "/>
<path fill-rule="nonzero" fill="rgb(43.165588%, 81.326294%, 88.18512%)" fill-opacity="1" d="M 2250 184.121094 L 2250 190.871094 L 2434.121094 190.871094 L 2434.121094 559.121094 L 2250 559.121094 L 2250 565.871094 L 2434.078125 565.871094 L 2440.871094 559.078125 L 2440.871094 191.011719 L 2433.988281 184.121094 L 2250 184.121094 "/>
<path fill-rule="nonzero" fill="rgb(43.165588%, 81.326294%, 88.18512%)" fill-opacity="1" d="M 3000 190.871094 L 3000 184.121094 L 2815.898438 184.121094 L 2809.121094 190.910156 L 2809.121094 559.121094 L 2809.058594 559.121094 L 2815.871094 565.929688 L 2815.871094 565.871094 L 3000 565.871094 L 3000 559.121094 L 2815.871094 559.121094 L 2815.871094 190.871094 L 3000 190.871094 "/>
<path fill-rule="nonzero" fill="rgb(43.165588%, 81.326294%, 88.18512%)" fill-opacity="1" d="M 0 934.121094 L 0 940.871094 L 184.125 940.871094 L 184.125 1309.121094 L 0 1309.121094 L 0 1315.871094 L 184.078125 1315.871094 L 190.875 1309.078125 L 190.875 941.011719 L 183.992188 934.121094 L 0 934.121094 "/>
<path fill-rule="nonzero" fill="rgb(43.165588%, 81.326294%, 88.18512%)" fill-opacity="1" d="M 750 940.871094 L 750 934.121094 L 565.90625 934.121094 L 559.125 940.910156 L 559.125 1309.121094 L 559.066406 1309.121094 L 565.875 1315.941406 L 565.875 1315.871094 L 750 1315.871094 L 750 1309.121094 L 565.875 1309.121094 L 565.875 940.871094 L 750 940.871094 "/>
<path fill-rule="nonzero" fill="rgb(43.165588%, 81.326294%, 88.18512%)" fill-opacity="1" d="M 750 934.121094 L 750 940.871094 L 934.125 940.871094 L 934.125 1309.121094 L 750 1309.121094 L 750 1315.871094 L 934.078125 1315.871094 L 940.875 1309.078125 L 940.875 941.011719 L 933.992188 934.121094 L 750 934.121094 "/>
<path fill-rule="nonzero" fill="rgb(43.165588%, 81.326294%, 88.18512%)" fill-opacity="1" d="M 1500 940.871094 L 1500 934.121094 L 1315.910156 934.121094 L 1309.121094 940.910156 L 1309.121094 1309.121094 L 1309.058594 1309.121094 L 1315.871094 1315.941406 L 1315.871094 1315.871094 L 1500 1315.871094 L 1500 1309.121094 L 1315.871094 1309.121094 L 1315.871094 940.871094 L 1500 940.871094 "/>
<path fill-rule="nonzero" fill="rgb(43.165588%, 81.326294%, 88.18512%)" fill-opacity="1" d="M 1500 934.121094 L 1500 940.871094 L 1684.128906 940.871094 L 1684.128906 1309.121094 L 1500 1309.121094 L 1500 1315.871094 L 1684.078125 1315.871094 L 1690.878906 1309.078125 L 1690.878906 941.011719 L 1683.988281 934.121094 L 1500 934.121094 "/>
<path fill-rule="nonzero" fill="rgb(43.165588%, 81.326294%, 88.18512%)" fill-opacity="1" d="M 2250 940.871094 L 2250 934.121094 L 2065.898438 934.121094 L 2059.121094 940.910156 L 2059.121094 1309.121094 L 2059.058594 1309.121094 L 2065.871094 1315.941406 L 2065.871094 1315.871094 L 2250 1315.871094 L 2250 1309.121094 L 2065.871094 1309.121094 L 2065.871094 940.871094 L 2250 940.871094 "/>
<path fill-rule="nonzero" fill="rgb(43.165588%, 81.326294%, 88.18512%)" fill-opacity="1" d="M 2250 934.121094 L 2250 940.871094 L 2434.121094 940.871094 L 2434.121094 1309.121094 L 2250 1309.121094 L 2250 1315.871094 L 2434.078125 1315.871094 L 2440.871094 1309.078125 L 2440.871094 941.011719 L 2433.988281 934.121094 L 2250 934.121094 "/>
<path fill-rule="nonzero" fill="rgb(43.165588%, 81.326294%, 88.18512%)" fill-opacity="1" d="M 3000 940.871094 L 3000 934.121094 L 2815.898438 934.121094 L 2809.121094 940.910156 L 2809.121094 1309.121094 L 2809.058594 1309.121094 L 2815.871094 1315.941406 L 2815.871094 1315.871094 L 3000 1315.871094 L 3000 1309.121094 L 2815.871094 1309.121094 L 2815.871094 940.871094 L 3000 940.871094 "/>
<path fill-rule="nonzero" fill="rgb(43.165588%, 81.326294%, 88.18512%)" fill-opacity="1" d="M 0 1684.128906 L 0 1690.878906 L 184.125 1690.878906 L 184.125 2059.128906 L 0 2059.128906 L 0 2065.878906 L 184.078125 2065.878906 L 190.875 2059.078125 L 190.875 1691.011719 L 183.992188 1684.128906 L 0 1684.128906 "/>
<path fill-rule="nonzero" fill="rgb(43.165588%, 81.326294%, 88.18512%)" fill-opacity="1" d="M 750 1690.878906 L 750 1684.128906 L 565.90625 1684.128906 L 559.125 1690.910156 L 559.125 2059.128906 L 559.066406 2059.128906 L 565.875 2065.941406 L 565.875 2065.878906 L 750 2065.878906 L 750 2059.128906 L 565.875 2059.128906 L 565.875 1690.878906 L 750 1690.878906 "/>
<path fill-rule="nonzero" fill="rgb(43.165588%, 81.326294%, 88.18512%)" fill-opacity="1" d="M 750 1684.128906 L 750 1690.878906 L 934.125 1690.878906 L 934.125 2059.128906 L 750 2059.128906 L 750 2065.878906 L 934.078125 2065.878906 L 940.875 2059.078125 L 940.875 1691.011719 L 933.992188 1684.128906 L 750 1684.128906 "/>
<path fill-rule="nonzero" fill="rgb(43.165588%, 81.326294%, 88.18512%)" fill-opacity="1" d="M 1500 1690.878906 L 1500 1684.128906 L 1315.910156 1684.128906 L 1309.121094 1690.910156 L 1309.121094 2059.128906 L 1309.058594 2059.128906 L 1315.871094 2065.941406 L 1315.871094 2065.878906 L 1500 2065.878906 L 1500 2059.128906 L 1315.871094 2059.128906 L 1315.871094 1690.878906 L 1500 1690.878906 "/>
<path fill-rule="nonzero" fill="rgb(43.165588%, 81.326294%, 88.18512%)" fill-opacity="1" d="M 1500 1684.128906 L 1500 1690.878906 L 1684.128906 1690.878906 L 1684.128906 2059.128906 L 1500 2059.128906 L 1500 2065.878906 L 1684.078125 2065.878906 L 1690.878906 2059.078125 L 1690.878906 1691.011719 L 1683.988281 1684.128906 L 1500 1684.128906 "/>
<path fill-rule="nonzero" fill="rgb(43.165588%, 81.326294%, 88.18512%)" fill-opacity="1" d="M 2250 1690.878906 L 2250 1684.128906 L 2065.898438 1684.128906 L 2059.121094 1690.910156 L 2059.121094 2059.128906 L 2059.058594 2059.128906 L 2065.871094 2065.941406 L 2065.871094 2065.878906 L 2250 2065.878906 L 2250 2059.128906 L 2065.871094 2059.128906 L 2065.871094 1690.878906 L 2250 1690.878906 "/>
<path fill-rule="nonzero" fill="rgb(43.165588%, 81.326294%, 88.18512%)" fill-opacity="1" d="M 2250 1684.128906 L 2250 1690.878906 L 2434.121094 1690.878906 L 2434.121094 2059.128906 L 2250 2059.128906 L 2250 2065.878906 L 2434.078125 2065.878906 L 2440.871094 2059.078125 L 2440.871094 1691.011719 L 2433.988281 1684.128906 L 2250 1684.128906 "/>
<path fill-rule="nonzero" fill="rgb(43.165588%, 81.326294%, 88.18512%)" fill-opacity="1" d="M 3000 1690.878906 L 3000 1684.128906 L 2815.898438 1684.128906 L 2809.121094 1690.910156 L 2809.121094 2059.128906 L 2809.058594 2059.128906 L 2815.871094 2065.941406 L 2815.871094 2065.878906 L 3000 2065.878906 L 3000 2059.128906 L 2815.871094 2059.128906 L 2815.871094 1690.878906 L 3000 1690.878906 "/>
<path fill-rule="nonzero" fill="rgb(43.165588%, 81.326294%, 88.18512%)" fill-opacity="1" d="M 0 2434.128906 L 0 2440.878906 L 184.125 2440.878906 L 184.125 2809.128906 L 0 2809.128906 L 0 2815.878906 L 184.078125 2815.878906 L 190.875 2809.078125 L 190.875 2441.011719 L 183.992188 2434.128906 L 0 2434.128906 "/>
<path fill-rule="nonzero" fill="rgb(43.165588%, 81.326294%, 88.18512%)" fill-opacity="1" d="M 750 2440.878906 L 750 2434.128906 L 565.90625 2434.128906 L 559.125 2440.910156 L 559.125 2809.128906 L 559.066406 2809.128906 L 565.875 2815.941406 L 565.875 2815.878906 L 750 2815.878906 L 750 2809.128906 L 565.875 2809.128906 L 565.875 2440.878906 L 750 2440.878906 "/>
<path fill-rule="nonzero" fill="rgb(43.165588%, 81.326294%, 88.18512%)" fill-opacity="1" d="M 750 2434.128906 L 750 2440.878906 L 934.125 2440.878906 L 934.125 2809.128906 L 750 2809.128906 L 750 2815.878906 L 934.078125 2815.878906 L 940.875 2809.078125 L 940.875 2441.011719 L 933.992188 2434.128906 L 750 2434.128906 "/>
<path fill-rule="nonzero" fill="rgb(43.165588%, 81.326294%, 88.18512%)" fill-opacity="1" d="M 1500 2440.878906 L 1500 2434.128906 L 1315.910156 2434.128906 L 1309.121094 2440.910156 L 1309.121094 2809.128906 L 1309.058594 2809.128906 L 1315.871094 2815.941406 L 1315.871094 2815.878906 L 1500 2815.878906 L 1500 2809.128906 L 1315.871094 2809.128906 L 1315.871094 2440.878906 L 1500 2440.878906 "/>
<path fill-rule="nonzero" fill="rgb(43.165588%, 81.326294%, 88.18512%)" fill-opacity="1" d="M 1500 2434.128906 L 1500 2440.878906 L 1684.128906 2440.878906 L 1684.128906 2809.128906 L 1500 2809.128906 L 1500 2815.878906 L 1684.078125 2815.878906 L 1690.878906 2809.078125 L 1690.878906 2441.011719 L 1683.988281 2434.128906 L 1500 2434.128906 "/>
<path fill-rule="nonzero" fill="rgb(43.165588%, 81.326294%, 88.18512%)" fill-opacity="1" d="M 2250 2440.878906 L 2250 2434.128906 L 2065.898438 2434.128906 L 2059.121094 2440.910156 L 2059.121094 2809.128906 L 2059.058594 2809.128906 L 2065.871094 2815.941406 L 2065.871094 2815.878906 L 2250 2815.878906 L 2250 2809.128906 L 2065.871094 2809.128906 L 2065.871094 2440.878906 L 2250 2440.878906 "/>
<path fill-rule="nonzero" fill="rgb(43.165588%, 81.326294%, 88.18512%)" fill-opacity="1" d="M 2250 2434.128906 L 2250 2440.878906 L 2434.121094 2440.878906 L 2434.121094 2809.128906 L 2250 2809.128906 L 2250 2815.878906 L 2434.078125 2815.878906 L 2440.871094 2809.078125 L 2440.871094 2441.011719 L 2433.988281 2434.128906 L 2250 2434.128906 "/>
<path fill-rule="nonzero" fill="rgb(43.165588%, 81.326294%, 88.18512%)" fill-opacity="1" d="M 3000 2440.878906 L 3000 2434.128906 L 2815.898438 2434.128906 L 2809.121094 2440.910156 L 2809.121094 2809.128906 L 2809.058594 2809.128906 L 2815.871094 2815.941406 L 2815.871094 2815.878906 L 3000 2815.878906 L 3000 2809.128906 L 2815.871094 2809.128906 L 2815.871094 2440.878906 L 3000 2440.878906 "/>
</svg>
